<?xml version="1.0" encoding="utf-8"?>
<!-- Generator: Adobe Illustrator 22.1.0, SVG Export Plug-In . SVG Version: 6.00 Build 0)  -->
<svg version="1.1" id="Слой_1" xmlns="http://www.w3.org/2000/svg" xmlns:xlink="http://www.w3.org/1999/xlink" x="0px" y="0px"
	 viewBox="0 0 20 20" style="enable-background:new 0 0 20 20;" xml:space="preserve">
<style type="text/css">
	.st0{opacity:0.5;fill:#F23C34;enable-background:new    ;}
</style>
<g>
	<path class="st0" d="M10,0C4.5,0,0,4.5,0,10c0,5.5,4.5,10,10,10s10-4.5,10-10C20,4.5,15.5,0,10,0z M3.6,14.8c-1-1.3-1.6-3-1.6-4.8
		c0-4.4,3.6-8,8-8c1.8,0,3.5,0.6,4.8,1.6L3.6,14.8z M16.4,5.2c1,1.3,1.6,3,1.6,4.8c0,4.4-3.6,8-8,8c-1.8,0-3.5-0.6-4.8-1.6L16.4,5.2
		z"/>
</g>
</svg>
